<mxfile host="www.draw.io" modified="2020-03-09T11:14:30.374Z" agent="Mozilla/5.0 (Macintosh; Intel Mac OS X 10_14_6) AppleWebKit/537.36 (KHTML, like Gecko) Chrome/80.0.3987.132 Safari/537.36" etag="uaNgWnGElexSS3d28RBe" version="12.8.1" type="github">
  <diagram id="SqESzxWNPk29sI8p1Rc2" name="Page-1">
    <mxGraphModel dx="3057" dy="2660" grid="1" gridSize="10" guides="1" tooltips="1" connect="1" arrows="1" fold="1" page="1" pageScale="1" pageWidth="827" pageHeight="1169" math="0" shadow="0">
      <root>
        <mxCell id="0" />
        <mxCell id="1" parent="0" />
        <mxCell id="NBVT0KH5Xc10zF8hWyY_-23" style="edgeStyle=orthogonalEdgeStyle;rounded=0;orthogonalLoop=1;jettySize=auto;html=1;exitX=1;exitY=0.5;exitDx=0;exitDy=0;entryX=0;entryY=0.5;entryDx=0;entryDy=0;fillColor=#B3B3B3;" parent="1" source="fmcavVUVDH8g0gvI5zor-2" target="BBNGL1OK1R0SubXPaPE9-8" edge="1">
          <mxGeometry relative="1" as="geometry">
            <mxPoint x="340" y="479" as="sourcePoint" />
          </mxGeometry>
        </mxCell>
        <mxCell id="NBVT0KH5Xc10zF8hWyY_-24" style="edgeStyle=orthogonalEdgeStyle;rounded=0;orthogonalLoop=1;jettySize=auto;html=1;exitX=1;exitY=0.5;exitDx=0;exitDy=0;entryX=0;entryY=0.5;entryDx=0;entryDy=0;fillColor=#B3B3B3;" parent="1" source="fmcavVUVDH8g0gvI5zor-2" target="BBNGL1OK1R0SubXPaPE9-7" edge="1">
          <mxGeometry relative="1" as="geometry">
            <mxPoint x="340" y="479" as="sourcePoint" />
          </mxGeometry>
        </mxCell>
        <mxCell id="NBVT0KH5Xc10zF8hWyY_-25" style="edgeStyle=orthogonalEdgeStyle;rounded=0;orthogonalLoop=1;jettySize=auto;html=1;exitX=1;exitY=0.5;exitDx=0;exitDy=0;entryX=0;entryY=0.5;entryDx=0;entryDy=0;fillColor=#B3B3B3;" parent="1" source="fmcavVUVDH8g0gvI5zor-2" target="BBNGL1OK1R0SubXPaPE9-6" edge="1">
          <mxGeometry relative="1" as="geometry">
            <mxPoint x="340" y="479" as="sourcePoint" />
          </mxGeometry>
        </mxCell>
        <mxCell id="NBVT0KH5Xc10zF8hWyY_-26" style="edgeStyle=orthogonalEdgeStyle;rounded=0;orthogonalLoop=1;jettySize=auto;html=1;exitX=1;exitY=0.5;exitDx=0;exitDy=0;entryX=0;entryY=0.5;entryDx=0;entryDy=0;fillColor=#B3B3B3;" parent="1" source="fmcavVUVDH8g0gvI5zor-2" target="BBNGL1OK1R0SubXPaPE9-5" edge="1">
          <mxGeometry relative="1" as="geometry">
            <mxPoint x="340" y="479" as="sourcePoint" />
          </mxGeometry>
        </mxCell>
        <mxCell id="NBVT0KH5Xc10zF8hWyY_-30" style="edgeStyle=orthogonalEdgeStyle;rounded=0;orthogonalLoop=1;jettySize=auto;html=1;exitX=0.5;exitY=1;exitDx=0;exitDy=0;entryX=0;entryY=0.5;entryDx=0;entryDy=0;fillColor=#B3B3B3;curved=1;" parent="1" source="fmcavVUVDH8g0gvI5zor-2" target="BBNGL1OK1R0SubXPaPE9-4" edge="1">
          <mxGeometry relative="1" as="geometry">
            <mxPoint x="280" y="509.00000000000045" as="sourcePoint" />
            <mxPoint x="930" y="569.0000000000005" as="targetPoint" />
          </mxGeometry>
        </mxCell>
        <mxCell id="6mLLUKD_3d6DJqKXJfNS-2" style="edgeStyle=orthogonalEdgeStyle;rounded=0;orthogonalLoop=1;jettySize=auto;html=1;exitX=1;exitY=0.5;exitDx=0;exitDy=0;entryX=0;entryY=0.5;entryDx=0;entryDy=0;fillColor=#B3B3B3;" parent="1" source="fmcavVUVDH8g0gvI5zor-2" target="6mLLUKD_3d6DJqKXJfNS-1" edge="1">
          <mxGeometry relative="1" as="geometry">
            <mxPoint x="340" y="479" as="sourcePoint" />
            <mxPoint x="440" y="559.0000000000005" as="targetPoint" />
          </mxGeometry>
        </mxCell>
        <mxCell id="NBVT0KH5Xc10zF8hWyY_-27" style="edgeStyle=orthogonalEdgeStyle;rounded=0;orthogonalLoop=1;jettySize=auto;html=1;exitX=1;exitY=0.5;exitDx=0;exitDy=0;entryX=0;entryY=0.5;entryDx=0;entryDy=0;fillColor=#B3B3B3;" parent="1" source="fmcavVUVDH8g0gvI5zor-4" target="BBNGL1OK1R0SubXPaPE9-9" edge="1">
          <mxGeometry relative="1" as="geometry">
            <mxPoint x="330" y="810" as="sourcePoint" />
          </mxGeometry>
        </mxCell>
        <mxCell id="NBVT0KH5Xc10zF8hWyY_-28" style="edgeStyle=orthogonalEdgeStyle;rounded=0;orthogonalLoop=1;jettySize=auto;html=1;exitX=1;exitY=0.5;exitDx=0;exitDy=0;entryX=0;entryY=0.5;entryDx=0;entryDy=0;fillColor=#B3B3B3;" parent="1" source="fmcavVUVDH8g0gvI5zor-4" target="BBNGL1OK1R0SubXPaPE9-10" edge="1">
          <mxGeometry relative="1" as="geometry">
            <mxPoint x="330" y="810" as="sourcePoint" />
          </mxGeometry>
        </mxCell>
        <mxCell id="NBVT0KH5Xc10zF8hWyY_-29" style="edgeStyle=orthogonalEdgeStyle;rounded=0;orthogonalLoop=1;jettySize=auto;html=1;exitX=1;exitY=0.5;exitDx=0;exitDy=0;entryX=0;entryY=0.5;entryDx=0;entryDy=0;fillColor=#B3B3B3;" parent="1" source="fmcavVUVDH8g0gvI5zor-4" target="BBNGL1OK1R0SubXPaPE9-11" edge="1">
          <mxGeometry relative="1" as="geometry">
            <mxPoint x="330" y="810" as="sourcePoint" />
          </mxGeometry>
        </mxCell>
        <mxCell id="NBVT0KH5Xc10zF8hWyY_-31" style="edgeStyle=orthogonalEdgeStyle;rounded=0;orthogonalLoop=1;jettySize=auto;html=1;exitX=0.5;exitY=0;exitDx=0;exitDy=0;entryX=0;entryY=0.5;entryDx=0;entryDy=0;fillColor=#B3B3B3;curved=1;" parent="1" source="fmcavVUVDH8g0gvI5zor-4" target="BBNGL1OK1R0SubXPaPE9-4" edge="1">
          <mxGeometry relative="1" as="geometry">
            <mxPoint x="270" y="780" as="sourcePoint" />
          </mxGeometry>
        </mxCell>
        <mxCell id="6mLLUKD_3d6DJqKXJfNS-4" style="edgeStyle=orthogonalEdgeStyle;rounded=0;orthogonalLoop=1;jettySize=auto;html=1;exitX=1;exitY=0.5;exitDx=0;exitDy=0;entryX=0;entryY=0.5;entryDx=0;entryDy=0;fillColor=#B3B3B3;" parent="1" source="fmcavVUVDH8g0gvI5zor-4" target="6mLLUKD_3d6DJqKXJfNS-3" edge="1">
          <mxGeometry relative="1" as="geometry">
            <mxPoint x="330" y="810" as="sourcePoint" />
          </mxGeometry>
        </mxCell>
        <mxCell id="NBVT0KH5Xc10zF8hWyY_-32" style="edgeStyle=orthogonalEdgeStyle;rounded=0;orthogonalLoop=1;jettySize=auto;html=1;exitX=1;exitY=0.5;exitDx=0;exitDy=0;entryX=0;entryY=0.5;entryDx=0;entryDy=0;fillColor=#B3B3B3;" parent="1" source="BBNGL1OK1R0SubXPaPE9-4" target="BBNGL1OK1R0SubXPaPE9-12" edge="1">
          <mxGeometry relative="1" as="geometry" />
        </mxCell>
        <mxCell id="NBVT0KH5Xc10zF8hWyY_-33" style="edgeStyle=orthogonalEdgeStyle;rounded=0;orthogonalLoop=1;jettySize=auto;html=1;exitX=1;exitY=0.5;exitDx=0;exitDy=0;entryX=0;entryY=0.5;entryDx=0;entryDy=0;fillColor=#B3B3B3;" parent="1" source="BBNGL1OK1R0SubXPaPE9-4" target="BBNGL1OK1R0SubXPaPE9-13" edge="1">
          <mxGeometry relative="1" as="geometry" />
        </mxCell>
        <mxCell id="6mLLUKD_3d6DJqKXJfNS-6" style="edgeStyle=orthogonalEdgeStyle;rounded=0;orthogonalLoop=1;jettySize=auto;html=1;exitX=1;exitY=0.5;exitDx=0;exitDy=0;entryX=0;entryY=0.5;entryDx=0;entryDy=0;fillColor=#B3B3B3;" parent="1" source="BBNGL1OK1R0SubXPaPE9-4" target="6mLLUKD_3d6DJqKXJfNS-5" edge="1">
          <mxGeometry relative="1" as="geometry" />
        </mxCell>
        <mxCell id="BBNGL1OK1R0SubXPaPE9-4" value="&lt;font style=&quot;font-size: 48px&quot;&gt;影响面&lt;/font&gt;" style="rounded=0;whiteSpace=wrap;html=1;fillColor=#FFCCCC;" parent="1" vertex="1">
          <mxGeometry x="920" y="600" width="170" height="160" as="geometry" />
        </mxCell>
        <mxCell id="NBVT0KH5Xc10zF8hWyY_-57" style="edgeStyle=orthogonalEdgeStyle;rounded=0;orthogonalLoop=1;jettySize=auto;html=1;exitX=1;exitY=0.5;exitDx=0;exitDy=0;entryX=0;entryY=0.5;entryDx=0;entryDy=0;fillColor=#B3B3B3;" parent="1" source="BBNGL1OK1R0SubXPaPE9-5" target="NBVT0KH5Xc10zF8hWyY_-35" edge="1">
          <mxGeometry relative="1" as="geometry">
            <mxPoint x="739.9999999999998" y="150" as="targetPoint" />
            <Array as="points">
              <mxPoint x="1380" y="70" />
              <mxPoint x="1380" y="9" />
            </Array>
          </mxGeometry>
        </mxCell>
        <mxCell id="NBVT0KH5Xc10zF8hWyY_-58" style="edgeStyle=orthogonalEdgeStyle;rounded=0;orthogonalLoop=1;jettySize=auto;html=1;exitX=1;exitY=0.5;exitDx=0;exitDy=0;entryX=0;entryY=0.5;entryDx=0;entryDy=0;fillColor=#B3B3B3;" parent="1" source="BBNGL1OK1R0SubXPaPE9-5" target="NBVT0KH5Xc10zF8hWyY_-36" edge="1">
          <mxGeometry relative="1" as="geometry">
            <Array as="points">
              <mxPoint x="1380" y="69" />
              <mxPoint x="1380" y="99" />
            </Array>
          </mxGeometry>
        </mxCell>
        <mxCell id="NBVT0KH5Xc10zF8hWyY_-59" style="edgeStyle=orthogonalEdgeStyle;rounded=0;orthogonalLoop=1;jettySize=auto;html=1;exitX=1;exitY=0.5;exitDx=0;exitDy=0;entryX=0;entryY=0.5;entryDx=0;entryDy=0;fillColor=#B3B3B3;" parent="1" source="BBNGL1OK1R0SubXPaPE9-5" target="NBVT0KH5Xc10zF8hWyY_-37" edge="1">
          <mxGeometry relative="1" as="geometry">
            <Array as="points">
              <mxPoint x="1380" y="69" />
              <mxPoint x="1380" y="179" />
            </Array>
          </mxGeometry>
        </mxCell>
        <mxCell id="NBVT0KH5Xc10zF8hWyY_-60" style="edgeStyle=orthogonalEdgeStyle;rounded=0;orthogonalLoop=1;jettySize=auto;html=1;exitX=1;exitY=0.5;exitDx=0;exitDy=0;entryX=0;entryY=0.5;entryDx=0;entryDy=0;fillColor=#B3B3B3;" parent="1" source="BBNGL1OK1R0SubXPaPE9-5" target="NBVT0KH5Xc10zF8hWyY_-38" edge="1">
          <mxGeometry relative="1" as="geometry">
            <Array as="points">
              <mxPoint x="1380" y="69" />
              <mxPoint x="1380" y="259" />
            </Array>
          </mxGeometry>
        </mxCell>
        <mxCell id="BBNGL1OK1R0SubXPaPE9-5" value="&lt;font style=&quot;font-size: 24px&quot;&gt;数据拉取客户端&lt;/font&gt;" style="rounded=0;whiteSpace=wrap;html=1;fillColor=#B3B3B3;" parent="1" vertex="1">
          <mxGeometry x="440" y="39" width="120" height="60" as="geometry" />
        </mxCell>
        <mxCell id="NBVT0KH5Xc10zF8hWyY_-94" style="edgeStyle=orthogonalEdgeStyle;rounded=0;orthogonalLoop=1;jettySize=auto;html=1;exitX=1;exitY=0.5;exitDx=0;exitDy=0;entryX=0;entryY=0.5;entryDx=0;entryDy=0;fillColor=#B3B3B3;" parent="1" source="BBNGL1OK1R0SubXPaPE9-6" target="NBVT0KH5Xc10zF8hWyY_-39" edge="1">
          <mxGeometry relative="1" as="geometry">
            <Array as="points">
              <mxPoint x="560" y="220" />
              <mxPoint x="1090" y="220" />
              <mxPoint x="1090" y="175" />
            </Array>
          </mxGeometry>
        </mxCell>
        <mxCell id="NBVT0KH5Xc10zF8hWyY_-95" style="edgeStyle=orthogonalEdgeStyle;rounded=0;orthogonalLoop=1;jettySize=auto;html=1;exitX=1;exitY=0.5;exitDx=0;exitDy=0;entryX=0;entryY=0.5;entryDx=0;entryDy=0;fillColor=#B3B3B3;" parent="1" source="BBNGL1OK1R0SubXPaPE9-6" target="NBVT0KH5Xc10zF8hWyY_-40" edge="1">
          <mxGeometry relative="1" as="geometry">
            <Array as="points">
              <mxPoint x="560" y="220" />
              <mxPoint x="1090" y="220" />
              <mxPoint x="1090" y="245" />
            </Array>
          </mxGeometry>
        </mxCell>
        <mxCell id="NBVT0KH5Xc10zF8hWyY_-96" style="edgeStyle=orthogonalEdgeStyle;rounded=0;orthogonalLoop=1;jettySize=auto;html=1;exitX=1;exitY=0.5;exitDx=0;exitDy=0;entryX=0;entryY=0.5;entryDx=0;entryDy=0;fillColor=#B3B3B3;" parent="1" source="BBNGL1OK1R0SubXPaPE9-6" target="NBVT0KH5Xc10zF8hWyY_-41" edge="1">
          <mxGeometry relative="1" as="geometry">
            <Array as="points">
              <mxPoint x="560" y="220" />
              <mxPoint x="1090" y="220" />
              <mxPoint x="1090" y="315" />
            </Array>
          </mxGeometry>
        </mxCell>
        <mxCell id="NBVT0KH5Xc10zF8hWyY_-97" style="edgeStyle=orthogonalEdgeStyle;rounded=0;orthogonalLoop=1;jettySize=auto;html=1;exitX=1;exitY=0.5;exitDx=0;exitDy=0;entryX=0;entryY=0.5;entryDx=0;entryDy=0;fillColor=#B3B3B3;" parent="1" source="BBNGL1OK1R0SubXPaPE9-6" target="NBVT0KH5Xc10zF8hWyY_-42" edge="1">
          <mxGeometry relative="1" as="geometry">
            <Array as="points">
              <mxPoint x="560" y="220" />
              <mxPoint x="1090" y="220" />
              <mxPoint x="1090" y="385" />
            </Array>
          </mxGeometry>
        </mxCell>
        <mxCell id="BBNGL1OK1R0SubXPaPE9-6" value="&lt;font style=&quot;font-size: 24px&quot;&gt;数据模型&lt;/font&gt;" style="rounded=0;whiteSpace=wrap;html=1;fillColor=#B3B3B3;" parent="1" vertex="1">
          <mxGeometry x="440" y="179" width="120" height="60" as="geometry" />
        </mxCell>
        <mxCell id="NBVT0KH5Xc10zF8hWyY_-55" style="edgeStyle=orthogonalEdgeStyle;rounded=0;orthogonalLoop=1;jettySize=auto;html=1;exitX=1;exitY=0.5;exitDx=0;exitDy=0;entryX=0;entryY=0.5;entryDx=0;entryDy=0;fillColor=#B3B3B3;" parent="1" source="BBNGL1OK1R0SubXPaPE9-7" target="NBVT0KH5Xc10zF8hWyY_-53" edge="1">
          <mxGeometry relative="1" as="geometry">
            <Array as="points">
              <mxPoint x="900" y="349" />
              <mxPoint x="900" y="269" />
            </Array>
          </mxGeometry>
        </mxCell>
        <mxCell id="NBVT0KH5Xc10zF8hWyY_-56" style="edgeStyle=orthogonalEdgeStyle;rounded=0;orthogonalLoop=1;jettySize=auto;html=1;exitX=1;exitY=0.5;exitDx=0;exitDy=0;entryX=0;entryY=0.5;entryDx=0;entryDy=0;fillColor=#B3B3B3;" parent="1" source="BBNGL1OK1R0SubXPaPE9-7" target="NBVT0KH5Xc10zF8hWyY_-54" edge="1">
          <mxGeometry relative="1" as="geometry">
            <Array as="points">
              <mxPoint x="900" y="349" />
              <mxPoint x="900" y="429" />
            </Array>
          </mxGeometry>
        </mxCell>
        <mxCell id="BBNGL1OK1R0SubXPaPE9-7" value="&lt;font style=&quot;font-size: 24px&quot;&gt;关系&lt;/font&gt;" style="rounded=0;whiteSpace=wrap;html=1;fillColor=#B3B3B3;" parent="1" vertex="1">
          <mxGeometry x="440" y="319" width="120" height="60" as="geometry" />
        </mxCell>
        <mxCell id="NBVT0KH5Xc10zF8hWyY_-64" style="edgeStyle=orthogonalEdgeStyle;rounded=0;orthogonalLoop=1;jettySize=auto;html=1;exitX=1;exitY=0.5;exitDx=0;exitDy=0;entryX=0;entryY=0.5;entryDx=0;entryDy=0;fillColor=#B3B3B3;" parent="1" source="BBNGL1OK1R0SubXPaPE9-8" target="NBVT0KH5Xc10zF8hWyY_-61" edge="1">
          <mxGeometry relative="1" as="geometry" />
        </mxCell>
        <mxCell id="NBVT0KH5Xc10zF8hWyY_-65" style="edgeStyle=orthogonalEdgeStyle;rounded=0;orthogonalLoop=1;jettySize=auto;html=1;exitX=1;exitY=0.5;exitDx=0;exitDy=0;entryX=0;entryY=0.5;entryDx=0;entryDy=0;fillColor=#B3B3B3;" parent="1" source="BBNGL1OK1R0SubXPaPE9-8" target="NBVT0KH5Xc10zF8hWyY_-62" edge="1">
          <mxGeometry relative="1" as="geometry" />
        </mxCell>
        <mxCell id="NBVT0KH5Xc10zF8hWyY_-66" style="edgeStyle=orthogonalEdgeStyle;rounded=0;orthogonalLoop=1;jettySize=auto;html=1;exitX=1;exitY=0.5;exitDx=0;exitDy=0;entryX=0;entryY=0.5;entryDx=0;entryDy=0;fillColor=#B3B3B3;" parent="1" source="BBNGL1OK1R0SubXPaPE9-8" target="NBVT0KH5Xc10zF8hWyY_-63" edge="1">
          <mxGeometry relative="1" as="geometry" />
        </mxCell>
        <mxCell id="BBNGL1OK1R0SubXPaPE9-8" value="&lt;font style=&quot;font-size: 24px&quot;&gt;复合导入&lt;/font&gt;" style="rounded=0;whiteSpace=wrap;html=1;fillColor=#B3B3B3;" parent="1" vertex="1">
          <mxGeometry x="440" y="449" width="120" height="60" as="geometry" />
        </mxCell>
        <mxCell id="NBVT0KH5Xc10zF8hWyY_-74" style="edgeStyle=orthogonalEdgeStyle;rounded=0;orthogonalLoop=1;jettySize=auto;html=1;exitX=1;exitY=0.5;exitDx=0;exitDy=0;entryX=0;entryY=0.5;entryDx=0;entryDy=0;fillColor=#B3B3B3;" parent="1" source="BBNGL1OK1R0SubXPaPE9-9" target="NBVT0KH5Xc10zF8hWyY_-67" edge="1">
          <mxGeometry relative="1" as="geometry" />
        </mxCell>
        <mxCell id="NBVT0KH5Xc10zF8hWyY_-75" style="edgeStyle=orthogonalEdgeStyle;rounded=0;orthogonalLoop=1;jettySize=auto;html=1;exitX=1;exitY=0.5;exitDx=0;exitDy=0;entryX=0;entryY=0.5;entryDx=0;entryDy=0;fillColor=#B3B3B3;" parent="1" source="BBNGL1OK1R0SubXPaPE9-9" target="NBVT0KH5Xc10zF8hWyY_-68" edge="1">
          <mxGeometry relative="1" as="geometry" />
        </mxCell>
        <mxCell id="NBVT0KH5Xc10zF8hWyY_-76" style="edgeStyle=orthogonalEdgeStyle;rounded=0;orthogonalLoop=1;jettySize=auto;html=1;exitX=1;exitY=0.5;exitDx=0;exitDy=0;entryX=0;entryY=0.5;entryDx=0;entryDy=0;fillColor=#B3B3B3;" parent="1" source="BBNGL1OK1R0SubXPaPE9-9" target="NBVT0KH5Xc10zF8hWyY_-69" edge="1">
          <mxGeometry relative="1" as="geometry" />
        </mxCell>
        <mxCell id="BBNGL1OK1R0SubXPaPE9-9" value="&lt;font style=&quot;font-size: 24px&quot;&gt;性能优化&lt;/font&gt;" style="rounded=0;whiteSpace=wrap;html=1;fillColor=#B3B3B3;" parent="1" vertex="1">
          <mxGeometry x="420" y="780" width="120" height="60" as="geometry" />
        </mxCell>
        <mxCell id="NBVT0KH5Xc10zF8hWyY_-77" style="edgeStyle=orthogonalEdgeStyle;rounded=0;orthogonalLoop=1;jettySize=auto;html=1;exitX=1;exitY=0.5;exitDx=0;exitDy=0;entryX=0;entryY=0.5;entryDx=0;entryDy=0;fillColor=#B3B3B3;" parent="1" source="BBNGL1OK1R0SubXPaPE9-10" target="NBVT0KH5Xc10zF8hWyY_-70" edge="1">
          <mxGeometry relative="1" as="geometry">
            <Array as="points">
              <mxPoint x="760" y="930" />
              <mxPoint x="760" y="890" />
            </Array>
          </mxGeometry>
        </mxCell>
        <mxCell id="NBVT0KH5Xc10zF8hWyY_-78" style="edgeStyle=orthogonalEdgeStyle;rounded=0;orthogonalLoop=1;jettySize=auto;html=1;exitX=1;exitY=0.5;exitDx=0;exitDy=0;entryX=0;entryY=0.5;entryDx=0;entryDy=0;fillColor=#B3B3B3;" parent="1" source="BBNGL1OK1R0SubXPaPE9-10" target="NBVT0KH5Xc10zF8hWyY_-71" edge="1">
          <mxGeometry relative="1" as="geometry">
            <Array as="points">
              <mxPoint x="760" y="930" />
              <mxPoint x="760" y="970" />
            </Array>
          </mxGeometry>
        </mxCell>
        <mxCell id="BBNGL1OK1R0SubXPaPE9-10" value="&lt;font style=&quot;font-size: 24px&quot;&gt;根据上下文查询&lt;/font&gt;" style="rounded=0;whiteSpace=wrap;html=1;fillColor=#B3B3B3;" parent="1" vertex="1">
          <mxGeometry x="420" y="900" width="120" height="60" as="geometry" />
        </mxCell>
        <mxCell id="NBVT0KH5Xc10zF8hWyY_-79" style="edgeStyle=orthogonalEdgeStyle;rounded=0;orthogonalLoop=1;jettySize=auto;html=1;exitX=1;exitY=0.5;exitDx=0;exitDy=0;entryX=0;entryY=0.5;entryDx=0;entryDy=0;fillColor=#B3B3B3;" parent="1" source="BBNGL1OK1R0SubXPaPE9-11" target="NBVT0KH5Xc10zF8hWyY_-72" edge="1">
          <mxGeometry relative="1" as="geometry">
            <Array as="points">
              <mxPoint x="1520" y="1059" />
              <mxPoint x="1520" y="949" />
            </Array>
          </mxGeometry>
        </mxCell>
        <mxCell id="NBVT0KH5Xc10zF8hWyY_-80" style="edgeStyle=orthogonalEdgeStyle;rounded=0;orthogonalLoop=1;jettySize=auto;html=1;exitX=1;exitY=0.5;exitDx=0;exitDy=0;entryX=0;entryY=0.5;entryDx=0;entryDy=0;fillColor=#B3B3B3;" parent="1" source="BBNGL1OK1R0SubXPaPE9-11" target="NBVT0KH5Xc10zF8hWyY_-73" edge="1">
          <mxGeometry relative="1" as="geometry">
            <Array as="points">
              <mxPoint x="1520" y="1059" />
              <mxPoint x="1520" y="1160" />
            </Array>
          </mxGeometry>
        </mxCell>
        <mxCell id="BBNGL1OK1R0SubXPaPE9-11" value="&lt;font style=&quot;font-size: 24px&quot;&gt;数据吐出&lt;/font&gt;" style="rounded=0;whiteSpace=wrap;html=1;fillColor=#B3B3B3;" parent="1" vertex="1">
          <mxGeometry x="420" y="1029" width="120" height="60" as="geometry" />
        </mxCell>
        <mxCell id="NBVT0KH5Xc10zF8hWyY_-108" style="edgeStyle=orthogonalEdgeStyle;rounded=0;orthogonalLoop=1;jettySize=auto;html=1;exitX=1;exitY=0.5;exitDx=0;exitDy=0;entryX=0;entryY=0.5;entryDx=0;entryDy=0;fillColor=#B3B3B3;" parent="1" source="BBNGL1OK1R0SubXPaPE9-12" target="NBVT0KH5Xc10zF8hWyY_-98" edge="1">
          <mxGeometry relative="1" as="geometry" />
        </mxCell>
        <mxCell id="NBVT0KH5Xc10zF8hWyY_-109" style="edgeStyle=orthogonalEdgeStyle;rounded=0;orthogonalLoop=1;jettySize=auto;html=1;exitX=1;exitY=0.5;exitDx=0;exitDy=0;entryX=0;entryY=0.5;entryDx=0;entryDy=0;fillColor=#B3B3B3;" parent="1" source="BBNGL1OK1R0SubXPaPE9-12" target="NBVT0KH5Xc10zF8hWyY_-99" edge="1">
          <mxGeometry relative="1" as="geometry" />
        </mxCell>
        <mxCell id="BBNGL1OK1R0SubXPaPE9-12" value="&lt;font style=&quot;font-size: 24px&quot;&gt;可编程&lt;/font&gt;" style="rounded=0;whiteSpace=wrap;html=1;fillColor=#B3B3B3;" parent="1" vertex="1">
          <mxGeometry x="1160" y="495" width="120" height="60" as="geometry" />
        </mxCell>
        <mxCell id="NBVT0KH5Xc10zF8hWyY_-110" style="edgeStyle=orthogonalEdgeStyle;rounded=0;orthogonalLoop=1;jettySize=auto;html=1;exitX=1;exitY=0.5;exitDx=0;exitDy=0;entryX=0;entryY=0.5;entryDx=0;entryDy=0;fillColor=#B3B3B3;" parent="1" source="BBNGL1OK1R0SubXPaPE9-13" target="NBVT0KH5Xc10zF8hWyY_-100" edge="1">
          <mxGeometry relative="1" as="geometry" />
        </mxCell>
        <mxCell id="NBVT0KH5Xc10zF8hWyY_-111" style="edgeStyle=orthogonalEdgeStyle;rounded=0;orthogonalLoop=1;jettySize=auto;html=1;exitX=1;exitY=0.5;exitDx=0;exitDy=0;entryX=0;entryY=0.5;entryDx=0;entryDy=0;fillColor=#B3B3B3;" parent="1" source="BBNGL1OK1R0SubXPaPE9-13" target="NBVT0KH5Xc10zF8hWyY_-101" edge="1">
          <mxGeometry relative="1" as="geometry" />
        </mxCell>
        <mxCell id="NBVT0KH5Xc10zF8hWyY_-112" style="edgeStyle=orthogonalEdgeStyle;rounded=0;orthogonalLoop=1;jettySize=auto;html=1;exitX=1;exitY=0.5;exitDx=0;exitDy=0;entryX=0;entryY=0.5;entryDx=0;entryDy=0;fillColor=#B3B3B3;" parent="1" source="BBNGL1OK1R0SubXPaPE9-13" target="NBVT0KH5Xc10zF8hWyY_-102" edge="1">
          <mxGeometry relative="1" as="geometry" />
        </mxCell>
        <mxCell id="BBNGL1OK1R0SubXPaPE9-13" value="&lt;font style=&quot;font-size: 24px&quot;&gt;自动发现&lt;/font&gt;" style="rounded=0;whiteSpace=wrap;html=1;fillColor=#B3B3B3;" parent="1" vertex="1">
          <mxGeometry x="1160" y="805" width="120" height="60" as="geometry" />
        </mxCell>
        <mxCell id="NBVT0KH5Xc10zF8hWyY_-35" value="&lt;font style=&quot;font-size: 24px&quot;&gt;zdalproxy&lt;/font&gt;" style="rounded=0;whiteSpace=wrap;html=1;fillColor=#B3B3B3;" parent="1" vertex="1">
          <mxGeometry x="1460" y="-21" width="120" height="60" as="geometry" />
        </mxCell>
        <mxCell id="NBVT0KH5Xc10zF8hWyY_-36" value="&lt;font style=&quot;font-size: 24px&quot;&gt;odps&lt;/font&gt;" style="rounded=0;whiteSpace=wrap;html=1;fillColor=#B3B3B3;" parent="1" vertex="1">
          <mxGeometry x="1460" y="69" width="120" height="60" as="geometry" />
        </mxCell>
        <mxCell id="NBVT0KH5Xc10zF8hWyY_-37" value="&lt;font style=&quot;font-size: 24px&quot;&gt;sigma&lt;/font&gt;" style="rounded=0;whiteSpace=wrap;html=1;fillColor=#B3B3B3;" parent="1" vertex="1">
          <mxGeometry x="1460" y="149" width="120" height="60" as="geometry" />
        </mxCell>
        <mxCell id="NBVT0KH5Xc10zF8hWyY_-38" value="&lt;font style=&quot;font-size: 24px&quot;&gt;light&lt;/font&gt;" style="rounded=0;whiteSpace=wrap;html=1;fillColor=#B3B3B3;" parent="1" vertex="1">
          <mxGeometry x="1460" y="229" width="120" height="60" as="geometry" />
        </mxCell>
        <mxCell id="NBVT0KH5Xc10zF8hWyY_-39" value="&lt;font style=&quot;font-size: 24px&quot;&gt;Java&lt;/font&gt;" style="rounded=0;whiteSpace=wrap;html=1;fillColor=#B3B3B3;" parent="1" vertex="1">
          <mxGeometry x="1150" y="145" width="120" height="60" as="geometry" />
        </mxCell>
        <mxCell id="NBVT0KH5Xc10zF8hWyY_-40" value="&lt;font style=&quot;font-size: 24px&quot;&gt;yaml&lt;/font&gt;" style="rounded=0;whiteSpace=wrap;html=1;fillColor=#B3B3B3;" parent="1" vertex="1">
          <mxGeometry x="1150" y="215" width="120" height="60" as="geometry" />
        </mxCell>
        <mxCell id="NBVT0KH5Xc10zF8hWyY_-41" value="&lt;font style=&quot;font-size: 24px&quot;&gt;统一规范&lt;/font&gt;" style="rounded=0;whiteSpace=wrap;html=1;fillColor=#B3B3B3;" parent="1" vertex="1">
          <mxGeometry x="1150" y="285" width="120" height="60" as="geometry" />
        </mxCell>
        <mxCell id="NBVT0KH5Xc10zF8hWyY_-42" value="&lt;font style=&quot;font-size: 24px&quot;&gt;arn规范&lt;/font&gt;" style="rounded=0;whiteSpace=wrap;html=1;fillColor=#B3B3B3;" parent="1" vertex="1">
          <mxGeometry x="1150" y="355" width="120" height="60" as="geometry" />
        </mxCell>
        <mxCell id="NBVT0KH5Xc10zF8hWyY_-51" value="&lt;font style=&quot;font-size: 24px&quot;&gt;关系表独立调度&lt;/font&gt;" style="rounded=0;whiteSpace=wrap;html=1;fillColor=#B3B3B3;" parent="1" vertex="1">
          <mxGeometry x="930" y="319" width="120" height="60" as="geometry" />
        </mxCell>
        <mxCell id="NBVT0KH5Xc10zF8hWyY_-52" value="" style="edgeStyle=orthogonalEdgeStyle;rounded=0;orthogonalLoop=1;jettySize=auto;html=1;fillColor=#B3B3B3;" parent="1" source="BBNGL1OK1R0SubXPaPE9-7" target="NBVT0KH5Xc10zF8hWyY_-51" edge="1">
          <mxGeometry relative="1" as="geometry" />
        </mxCell>
        <mxCell id="NBVT0KH5Xc10zF8hWyY_-53" value="&lt;font style=&quot;font-size: 24px&quot;&gt;关系表单独更新&lt;/font&gt;" style="rounded=0;whiteSpace=wrap;html=1;fillColor=#B3B3B3;" parent="1" vertex="1">
          <mxGeometry x="930" y="239" width="120" height="60" as="geometry" />
        </mxCell>
        <mxCell id="NBVT0KH5Xc10zF8hWyY_-54" value="&lt;font style=&quot;font-size: 24px&quot;&gt;关系表订阅更新&lt;/font&gt;" style="rounded=0;whiteSpace=wrap;html=1;fillColor=#FFFFFF;" parent="1" vertex="1">
          <mxGeometry x="930" y="399" width="120" height="60" as="geometry" />
        </mxCell>
        <mxCell id="NBVT0KH5Xc10zF8hWyY_-61" value="&lt;font style=&quot;font-size: 24px&quot;&gt;同一模型不同导入方式&lt;/font&gt;" style="rounded=0;whiteSpace=wrap;html=1;fillColor=#B3B3B3;" parent="1" vertex="1">
          <mxGeometry x="620" y="379" width="270" height="60" as="geometry" />
        </mxCell>
        <mxCell id="NBVT0KH5Xc10zF8hWyY_-62" value="&lt;font style=&quot;font-size: 24px&quot;&gt;同一导入方式不同数据源&lt;/font&gt;" style="rounded=0;whiteSpace=wrap;html=1;fillColor=none;" parent="1" vertex="1">
          <mxGeometry x="620" y="449" width="270" height="60" as="geometry" />
        </mxCell>
        <mxCell id="NBVT0KH5Xc10zF8hWyY_-63" value="&lt;font style=&quot;font-size: 24px&quot;&gt;不同数据源不同写入权限&lt;/font&gt;" style="rounded=0;whiteSpace=wrap;html=1;fillColor=none;" parent="1" vertex="1">
          <mxGeometry x="620" y="519" width="270" height="60" as="geometry" />
        </mxCell>
        <mxCell id="NBVT0KH5Xc10zF8hWyY_-67" value="&lt;font style=&quot;font-size: 24px&quot;&gt;hash表&lt;/font&gt;" style="rounded=0;whiteSpace=wrap;html=1;fillColor=#B3B3B3;" parent="1" vertex="1">
          <mxGeometry x="610" y="700" width="120" height="60" as="geometry" />
        </mxCell>
        <mxCell id="NBVT0KH5Xc10zF8hWyY_-68" value="&lt;font style=&quot;font-size: 24px&quot;&gt;二级索引&lt;/font&gt;" style="rounded=0;whiteSpace=wrap;html=1;fillColor=#B3B3B3;" parent="1" vertex="1">
          <mxGeometry x="610" y="780" width="120" height="60" as="geometry" />
        </mxCell>
        <mxCell id="NBVT0KH5Xc10zF8hWyY_-69" value="&lt;font style=&quot;font-size: 24px&quot;&gt;rowkey&lt;/font&gt;" style="rounded=0;whiteSpace=wrap;html=1;fillColor=#B3B3B3;" parent="1" vertex="1">
          <mxGeometry x="610" y="860" width="120" height="60" as="geometry" />
        </mxCell>
        <mxCell id="NBVT0KH5Xc10zF8hWyY_-70" value="&lt;font style=&quot;font-size: 24px&quot;&gt;根据查询上下文进行列表查询&lt;/font&gt;" style="rounded=0;whiteSpace=wrap;html=1;fillColor=#B3B3B3;" parent="1" vertex="1">
          <mxGeometry x="800" y="860" width="330" height="60" as="geometry" />
        </mxCell>
        <mxCell id="NBVT0KH5Xc10zF8hWyY_-71" value="&lt;font style=&quot;font-size: 24px&quot;&gt;根据查询上下文进行大规模影响面查询&lt;/font&gt;" style="rounded=0;whiteSpace=wrap;html=1;fillColor=none;" parent="1" vertex="1">
          <mxGeometry x="800" y="940" width="330" height="60" as="geometry" />
        </mxCell>
        <mxCell id="NBVT0KH5Xc10zF8hWyY_-87" style="edgeStyle=orthogonalEdgeStyle;rounded=0;orthogonalLoop=1;jettySize=auto;html=1;exitX=1;exitY=0.5;exitDx=0;exitDy=0;entryX=0;entryY=0.5;entryDx=0;entryDy=0;fillColor=#B3B3B3;" parent="1" source="NBVT0KH5Xc10zF8hWyY_-72" target="NBVT0KH5Xc10zF8hWyY_-81" edge="1">
          <mxGeometry relative="1" as="geometry" />
        </mxCell>
        <mxCell id="NBVT0KH5Xc10zF8hWyY_-88" style="edgeStyle=orthogonalEdgeStyle;rounded=0;orthogonalLoop=1;jettySize=auto;html=1;exitX=1;exitY=0.5;exitDx=0;exitDy=0;entryX=0;entryY=0.5;entryDx=0;entryDy=0;fillColor=#B3B3B3;" parent="1" source="NBVT0KH5Xc10zF8hWyY_-72" target="NBVT0KH5Xc10zF8hWyY_-82" edge="1">
          <mxGeometry relative="1" as="geometry" />
        </mxCell>
        <mxCell id="NBVT0KH5Xc10zF8hWyY_-89" style="edgeStyle=orthogonalEdgeStyle;rounded=0;orthogonalLoop=1;jettySize=auto;html=1;exitX=1;exitY=0.5;exitDx=0;exitDy=0;entryX=0;entryY=0.5;entryDx=0;entryDy=0;fillColor=#B3B3B3;" parent="1" source="NBVT0KH5Xc10zF8hWyY_-72" target="NBVT0KH5Xc10zF8hWyY_-83" edge="1">
          <mxGeometry relative="1" as="geometry" />
        </mxCell>
        <mxCell id="NBVT0KH5Xc10zF8hWyY_-72" value="&lt;font style=&quot;font-size: 24px&quot;&gt;统一查询接口&lt;/font&gt;" style="rounded=0;whiteSpace=wrap;html=1;fillColor=#B3B3B3;" parent="1" vertex="1">
          <mxGeometry x="1590" y="919" width="120" height="60" as="geometry" />
        </mxCell>
        <mxCell id="NBVT0KH5Xc10zF8hWyY_-90" style="edgeStyle=orthogonalEdgeStyle;rounded=0;orthogonalLoop=1;jettySize=auto;html=1;exitX=1;exitY=0.5;exitDx=0;exitDy=0;entryX=0;entryY=0.5;entryDx=0;entryDy=0;fillColor=#B3B3B3;" parent="1" source="NBVT0KH5Xc10zF8hWyY_-73" target="NBVT0KH5Xc10zF8hWyY_-84" edge="1">
          <mxGeometry relative="1" as="geometry">
            <Array as="points">
              <mxPoint x="1950" y="1160" />
              <mxPoint x="1950" y="1080" />
            </Array>
          </mxGeometry>
        </mxCell>
        <mxCell id="NBVT0KH5Xc10zF8hWyY_-91" style="edgeStyle=orthogonalEdgeStyle;rounded=0;orthogonalLoop=1;jettySize=auto;html=1;exitX=1;exitY=0.5;exitDx=0;exitDy=0;entryX=0;entryY=0.5;entryDx=0;entryDy=0;fillColor=#B3B3B3;" parent="1" source="NBVT0KH5Xc10zF8hWyY_-73" target="NBVT0KH5Xc10zF8hWyY_-85" edge="1">
          <mxGeometry relative="1" as="geometry" />
        </mxCell>
        <mxCell id="NBVT0KH5Xc10zF8hWyY_-92" style="edgeStyle=orthogonalEdgeStyle;rounded=0;orthogonalLoop=1;jettySize=auto;html=1;exitX=1;exitY=0.5;exitDx=0;exitDy=0;entryX=0;entryY=0.5;entryDx=0;entryDy=0;fillColor=#B3B3B3;" parent="1" source="NBVT0KH5Xc10zF8hWyY_-73" target="NBVT0KH5Xc10zF8hWyY_-86" edge="1">
          <mxGeometry relative="1" as="geometry">
            <mxPoint x="1990" y="1239.9999999999995" as="targetPoint" />
            <Array as="points">
              <mxPoint x="1950" y="1160" />
              <mxPoint x="1950" y="1240" />
            </Array>
          </mxGeometry>
        </mxCell>
        <mxCell id="NBVT0KH5Xc10zF8hWyY_-73" value="&lt;font style=&quot;font-size: 24px&quot;&gt;统一模型结果&lt;/font&gt;" style="rounded=0;whiteSpace=wrap;html=1;fillColor=#B3B3B3;" parent="1" vertex="1">
          <mxGeometry x="1590" y="1130" width="120" height="60" as="geometry" />
        </mxCell>
        <mxCell id="NBVT0KH5Xc10zF8hWyY_-81" value="&lt;font style=&quot;font-size: 24px&quot;&gt;接口数据封装&lt;/font&gt;" style="rounded=1;whiteSpace=wrap;html=1;arcSize=0;fillColor=#B3B3B3;" parent="1" vertex="1">
          <mxGeometry x="1800" y="840" width="120" height="60" as="geometry" />
        </mxCell>
        <mxCell id="NBVT0KH5Xc10zF8hWyY_-82" value="&lt;font style=&quot;font-size: 24px&quot;&gt;统一外部数据源&lt;/font&gt;" style="rounded=0;whiteSpace=wrap;html=1;fillColor=#E6E6E6;" parent="1" vertex="1">
          <mxGeometry x="1800" y="919" width="120" height="60" as="geometry" />
        </mxCell>
        <mxCell id="NBVT0KH5Xc10zF8hWyY_-83" value="&lt;font style=&quot;font-size: 24px&quot;&gt;统一异构的数据源&lt;/font&gt;" style="rounded=0;whiteSpace=wrap;html=1;fillColor=#E6E6E6;" parent="1" vertex="1">
          <mxGeometry x="1800" y="1010" width="120" height="60" as="geometry" />
        </mxCell>
        <mxCell id="NBVT0KH5Xc10zF8hWyY_-84" value="&lt;font style=&quot;font-size: 24px&quot;&gt;无模型Map结果&lt;/font&gt;" style="rounded=0;whiteSpace=wrap;html=1;fillColor=#B3B3B3;" parent="1" vertex="1">
          <mxGeometry x="2030" y="1050" width="120" height="60" as="geometry" />
        </mxCell>
        <mxCell id="NBVT0KH5Xc10zF8hWyY_-85" value="&lt;font style=&quot;font-size: 24px&quot;&gt;范型&lt;/font&gt;" style="rounded=0;whiteSpace=wrap;html=1;fillColor=#B3B3B3;" parent="1" vertex="1">
          <mxGeometry x="2030" y="1130" width="120" height="60" as="geometry" />
        </mxCell>
        <mxCell id="NBVT0KH5Xc10zF8hWyY_-86" value="&lt;font style=&quot;font-size: 24px&quot;&gt;拓扑&lt;/font&gt;" style="rounded=0;whiteSpace=wrap;html=1;fillColor=#B3B3B3;" parent="1" vertex="1">
          <mxGeometry x="2030" y="1210" width="120" height="60" as="geometry" />
        </mxCell>
        <mxCell id="NBVT0KH5Xc10zF8hWyY_-113" style="edgeStyle=orthogonalEdgeStyle;rounded=0;orthogonalLoop=1;jettySize=auto;html=1;exitX=1;exitY=0.5;exitDx=0;exitDy=0;entryX=0;entryY=0.5;entryDx=0;entryDy=0;fillColor=#B3B3B3;" parent="1" source="NBVT0KH5Xc10zF8hWyY_-98" target="NBVT0KH5Xc10zF8hWyY_-104" edge="1">
          <mxGeometry relative="1" as="geometry" />
        </mxCell>
        <mxCell id="NBVT0KH5Xc10zF8hWyY_-117" style="edgeStyle=orthogonalEdgeStyle;rounded=0;orthogonalLoop=1;jettySize=auto;html=1;exitX=1;exitY=0.5;exitDx=0;exitDy=0;entryX=0;entryY=0.5;entryDx=0;entryDy=0;fillColor=#B3B3B3;" parent="1" source="NBVT0KH5Xc10zF8hWyY_-98" target="NBVT0KH5Xc10zF8hWyY_-103" edge="1">
          <mxGeometry relative="1" as="geometry" />
        </mxCell>
        <mxCell id="NBVT0KH5Xc10zF8hWyY_-98" value="&lt;font style=&quot;font-size: 24px&quot;&gt;参数解析&lt;/font&gt;" style="rounded=0;whiteSpace=wrap;html=1;fillColor=#B3B3B3;" parent="1" vertex="1">
          <mxGeometry x="1420" y="450" width="120" height="60" as="geometry" />
        </mxCell>
        <mxCell id="NBVT0KH5Xc10zF8hWyY_-115" style="edgeStyle=orthogonalEdgeStyle;rounded=0;orthogonalLoop=1;jettySize=auto;html=1;exitX=1;exitY=0.5;exitDx=0;exitDy=0;entryX=0;entryY=0.5;entryDx=0;entryDy=0;fillColor=#B3B3B3;" parent="1" source="NBVT0KH5Xc10zF8hWyY_-99" target="NBVT0KH5Xc10zF8hWyY_-106" edge="1">
          <mxGeometry relative="1" as="geometry" />
        </mxCell>
        <mxCell id="NBVT0KH5Xc10zF8hWyY_-116" style="edgeStyle=orthogonalEdgeStyle;rounded=0;orthogonalLoop=1;jettySize=auto;html=1;exitX=1;exitY=0.5;exitDx=0;exitDy=0;entryX=0;entryY=0.5;entryDx=0;entryDy=0;fillColor=#B3B3B3;" parent="1" source="NBVT0KH5Xc10zF8hWyY_-99" target="NBVT0KH5Xc10zF8hWyY_-107" edge="1">
          <mxGeometry relative="1" as="geometry">
            <Array as="points">
              <mxPoint x="1750" y="570" />
              <mxPoint x="1750" y="660" />
            </Array>
          </mxGeometry>
        </mxCell>
        <mxCell id="NBVT0KH5Xc10zF8hWyY_-118" style="edgeStyle=orthogonalEdgeStyle;rounded=0;orthogonalLoop=1;jettySize=auto;html=1;exitX=1;exitY=0.5;exitDx=0;exitDy=0;entryX=0;entryY=0.5;entryDx=0;entryDy=0;fillColor=#B3B3B3;" parent="1" source="NBVT0KH5Xc10zF8hWyY_-99" target="NBVT0KH5Xc10zF8hWyY_-105" edge="1">
          <mxGeometry relative="1" as="geometry">
            <Array as="points">
              <mxPoint x="1750" y="570" />
              <mxPoint x="1750" y="480" />
            </Array>
          </mxGeometry>
        </mxCell>
        <mxCell id="NBVT0KH5Xc10zF8hWyY_-99" value="&lt;font style=&quot;font-size: 24px&quot;&gt;查询计划&lt;/font&gt;" style="rounded=0;whiteSpace=wrap;html=1;fillColor=#B3B3B3;" parent="1" vertex="1">
          <mxGeometry x="1420" y="540" width="120" height="60" as="geometry" />
        </mxCell>
        <mxCell id="NBVT0KH5Xc10zF8hWyY_-100" value="&lt;font style=&quot;font-size: 24px&quot;&gt;最短路径&lt;/font&gt;" style="rounded=0;whiteSpace=wrap;html=1;fillColor=#B3B3B3;" parent="1" vertex="1">
          <mxGeometry x="1360" y="710" width="120" height="60" as="geometry" />
        </mxCell>
        <mxCell id="NBVT0KH5Xc10zF8hWyY_-101" value="&lt;font style=&quot;font-size: 24px&quot;&gt;带权重最短路径&lt;/font&gt;" style="rounded=0;whiteSpace=wrap;html=1;fillColor=none;" parent="1" vertex="1">
          <mxGeometry x="1360" y="805" width="120" height="60" as="geometry" />
        </mxCell>
        <mxCell id="NBVT0KH5Xc10zF8hWyY_-102" value="&lt;font style=&quot;font-size: 24px&quot;&gt;业务逻辑最短路径&lt;/font&gt;" style="rounded=0;whiteSpace=wrap;html=1;fillColor=none;" parent="1" vertex="1">
          <mxGeometry x="1360" y="900" width="120" height="60" as="geometry" />
        </mxCell>
        <mxCell id="NBVT0KH5Xc10zF8hWyY_-103" value="&lt;font style=&quot;font-size: 24px&quot;&gt;通用解析逻辑&lt;/font&gt;" style="rounded=0;whiteSpace=wrap;html=1;fillColor=#B3B3B3;" parent="1" vertex="1">
          <mxGeometry x="1610" y="420" width="120" height="60" as="geometry" />
        </mxCell>
        <mxCell id="NBVT0KH5Xc10zF8hWyY_-104" value="&lt;font style=&quot;font-size: 24px&quot;&gt;字符串拼接&lt;/font&gt;" style="rounded=0;whiteSpace=wrap;html=1;fillColor=#B3B3B3;" parent="1" vertex="1">
          <mxGeometry x="1610" y="490" width="120" height="60" as="geometry" />
        </mxCell>
        <mxCell id="NBVT0KH5Xc10zF8hWyY_-105" value="&lt;font style=&quot;font-size: 24px&quot;&gt;搜索路径&lt;/font&gt;" style="rounded=0;whiteSpace=wrap;html=1;fillColor=#B3B3B3;" parent="1" vertex="1">
          <mxGeometry x="1780" y="450" width="120" height="60" as="geometry" />
        </mxCell>
        <mxCell id="NBVT0KH5Xc10zF8hWyY_-106" value="&lt;font style=&quot;font-size: 24px&quot;&gt;路径过滤条件&lt;/font&gt;" style="rounded=0;whiteSpace=wrap;html=1;fillColor=#B3B3B3;" parent="1" vertex="1">
          <mxGeometry x="1780" y="540" width="120" height="60" as="geometry" />
        </mxCell>
        <mxCell id="NBVT0KH5Xc10zF8hWyY_-107" value="&lt;font style=&quot;font-size: 24px&quot;&gt;分级影响面&lt;/font&gt;" style="rounded=0;whiteSpace=wrap;html=1;fillColor=none;" parent="1" vertex="1">
          <mxGeometry x="1780" y="630" width="120" height="60" as="geometry" />
        </mxCell>
        <mxCell id="6mLLUKD_3d6DJqKXJfNS-1" value="&lt;font style=&quot;font-size: 24px&quot;&gt;高可用&lt;/font&gt;" style="rounded=0;whiteSpace=wrap;html=1;fillColor=#E6E6E6;" parent="1" vertex="1">
          <mxGeometry x="440" y="579" width="120" height="60" as="geometry" />
        </mxCell>
        <mxCell id="6mLLUKD_3d6DJqKXJfNS-3" value="&lt;font style=&quot;font-size: 24px&quot;&gt;高可用&lt;/font&gt;" style="rounded=0;whiteSpace=wrap;html=1;fillColor=#E6E6E6;" parent="1" vertex="1">
          <mxGeometry x="420" y="1120" width="120" height="60" as="geometry" />
        </mxCell>
        <mxCell id="6mLLUKD_3d6DJqKXJfNS-5" value="&lt;font style=&quot;font-size: 24px&quot;&gt;模型评估&lt;/font&gt;" style="rounded=0;whiteSpace=wrap;html=1;fillColor=#E6E6E6;" parent="1" vertex="1">
          <mxGeometry x="1520" y="650" width="120" height="60" as="geometry" />
        </mxCell>
        <mxCell id="fmcavVUVDH8g0gvI5zor-2" value="&lt;font style=&quot;font-size: 48px&quot;&gt;数据组装&lt;/font&gt;" style="rounded=0;whiteSpace=wrap;html=1;fillColor=#FFCCCC;" vertex="1" parent="1">
          <mxGeometry x="60" y="440" width="210" height="160" as="geometry" />
        </mxCell>
        <mxCell id="fmcavVUVDH8g0gvI5zor-4" value="&lt;font style=&quot;font-size: 48px&quot;&gt;数据查询&lt;/font&gt;" style="rounded=0;whiteSpace=wrap;html=1;fillColor=#FFCCCC;" vertex="1" parent="1">
          <mxGeometry x="60" y="760" width="210" height="160" as="geometry" />
        </mxCell>
      </root>
    </mxGraphModel>
  </diagram>
</mxfile>
